<mxfile host="65bd71144e">
    <diagram id="8Z37QkMzv7DhRgoODmQx" name="Page-1">
        <mxGraphModel dx="1056" dy="782" grid="1" gridSize="10" guides="0" tooltips="1" connect="0" arrows="1" fold="1" page="1" pageScale="1" pageWidth="850" pageHeight="1100" background="#ffffff" math="0" shadow="0">
            <root>
                <mxCell id="0"/>
                <mxCell id="1" parent="0"/>
                <mxCell id="3" value="" style="whiteSpace=wrap;html=1;fillColor=#1ba1e2;fontColor=#ffffff;strokeColor=#006EAF;" parent="1" vertex="1">
                    <mxGeometry x="70" y="50" width="3930" height="2020" as="geometry"/>
                </mxCell>
                <mxCell id="13" style="edgeStyle=none;html=1;fontSize=18;" parent="1" source="5" target="3" edge="1">
                    <mxGeometry relative="1" as="geometry"/>
                </mxCell>
                <mxCell id="14" style="edgeStyle=none;html=1;fontSize=18;" parent="1" source="5" target="3" edge="1">
                    <mxGeometry relative="1" as="geometry"/>
                </mxCell>
                <mxCell id="5" value="&lt;b&gt;&lt;font style=&quot;font-size: 18px;&quot;&gt;Customer buy an Apple&lt;/font&gt;&lt;/b&gt;" style="rounded=0;whiteSpace=wrap;html=1;strokeColor=#001DBC;fillColor=#0050ef;fontColor=#ffffff;" parent="1" vertex="1">
                    <mxGeometry x="70" y="50" width="230" height="110" as="geometry"/>
                </mxCell>
                <mxCell id="6" value="" style="triangle;whiteSpace=wrap;html=1;rotation=45;fillColor=#1ba1e2;fontColor=#ffffff;strokeColor=none;" parent="1" vertex="1">
                    <mxGeometry x="270" y="120" width="60" height="80" as="geometry"/>
                </mxCell>
                <mxCell id="9" value="customer" style="shape=actor;whiteSpace=wrap;html=1;fontSize=18;fillColor=#008a00;fontColor=#ffffff;strokeColor=#005700;" parent="1" vertex="1">
                    <mxGeometry x="120" y="180" width="40" height="60" as="geometry"/>
                </mxCell>
                <mxCell id="16" value="" style="line;strokeWidth=2;direction=south;html=1;fontSize=18;dashed=1;" parent="1" vertex="1">
                    <mxGeometry x="140" y="240" width="10" height="1800" as="geometry"/>
                </mxCell>
                <mxCell id="19" value="Cacher" style="shape=actor;whiteSpace=wrap;html=1;fontSize=18;fillColor=#008a00;fontColor=#ffffff;strokeColor=#005700;" parent="1" vertex="1">
                    <mxGeometry x="390" y="180" width="40" height="60" as="geometry"/>
                </mxCell>
                <mxCell id="20" value="" style="line;strokeWidth=2;direction=south;html=1;fontSize=18;dashed=1;" parent="1" vertex="1">
                    <mxGeometry x="410" y="240" width="10" height="1790" as="geometry"/>
                </mxCell>
                <mxCell id="21" value=": CacherSignUi" style="rounded=0;whiteSpace=wrap;html=1;fontSize=18;fillColor=#6a00ff;fontColor=#ffffff;strokeColor=#3700CC;" parent="1" vertex="1">
                    <mxGeometry x="580" y="180" width="140" height="60" as="geometry"/>
                </mxCell>
                <mxCell id="22" value="" style="line;strokeWidth=2;direction=south;html=1;fontSize=18;dashed=1;" parent="1" vertex="1">
                    <mxGeometry x="650" y="240" width="10" height="590" as="geometry"/>
                </mxCell>
                <mxCell id="23" value=": CacherController" style="rounded=0;whiteSpace=wrap;html=1;fontSize=18;fillColor=#6a00ff;fontColor=#ffffff;strokeColor=#3700CC;" parent="1" vertex="1">
                    <mxGeometry x="960" y="180" width="160" height="60" as="geometry"/>
                </mxCell>
                <mxCell id="24" value="" style="line;strokeWidth=2;direction=south;html=1;fontSize=18;dashed=1;" parent="1" vertex="1">
                    <mxGeometry x="1040" y="240" width="10" height="660" as="geometry"/>
                </mxCell>
                <mxCell id="25" value=": CacherModel" style="rounded=0;whiteSpace=wrap;html=1;fontSize=18;fillColor=#6a00ff;fontColor=#ffffff;strokeColor=#3700CC;" parent="1" vertex="1">
                    <mxGeometry x="1290" y="180" width="140" height="60" as="geometry"/>
                </mxCell>
                <mxCell id="26" value="" style="line;strokeWidth=2;direction=south;html=1;fontSize=18;dashed=1;" parent="1" vertex="1">
                    <mxGeometry x="1360" y="240" width="10" height="650" as="geometry"/>
                </mxCell>
                <mxCell id="27" value=": ServicesUi" style="rounded=0;whiteSpace=wrap;html=1;fontSize=18;fillColor=#6a00ff;fontColor=#ffffff;strokeColor=#3700CC;" parent="1" vertex="1">
                    <mxGeometry x="1570" y="180" width="140" height="60" as="geometry"/>
                </mxCell>
                <mxCell id="28" value="" style="line;strokeWidth=2;direction=south;html=1;fontSize=18;dashed=1;" parent="1" vertex="1">
                    <mxGeometry x="1640" y="240" width="10" height="1480" as="geometry"/>
                </mxCell>
                <mxCell id="29" value=": MakeOrderUi" style="rounded=0;whiteSpace=wrap;html=1;fontSize=18;fillColor=#6a00ff;fontColor=#ffffff;strokeColor=#3700CC;" parent="1" vertex="1">
                    <mxGeometry x="1910" y="180" width="140" height="60" as="geometry"/>
                </mxCell>
                <mxCell id="30" value="" style="line;strokeWidth=2;direction=south;html=1;fontSize=18;dashed=1;" parent="1" vertex="1">
                    <mxGeometry x="1980" y="240" width="10" height="1690" as="geometry"/>
                </mxCell>
                <mxCell id="31" value=": MokeOrderController" style="rounded=0;whiteSpace=wrap;html=1;fontSize=18;fillColor=#6a00ff;fontColor=#ffffff;strokeColor=#3700CC;" parent="1" vertex="1">
                    <mxGeometry x="2180" y="180" width="210" height="60" as="geometry"/>
                </mxCell>
                <mxCell id="32" value="" style="line;strokeWidth=2;direction=south;html=1;fontSize=18;dashed=1;" parent="1" vertex="1">
                    <mxGeometry x="2280" y="240" width="10" height="1690" as="geometry"/>
                </mxCell>
                <mxCell id="33" value=": ProductController" style="rounded=0;whiteSpace=wrap;html=1;fontSize=18;fillColor=#6a00ff;fontColor=#ffffff;strokeColor=#3700CC;" parent="1" vertex="1">
                    <mxGeometry x="2510" y="180" width="160" height="60" as="geometry"/>
                </mxCell>
                <mxCell id="34" value="" style="line;strokeWidth=2;direction=south;html=1;fontSize=18;dashed=1;" parent="1" vertex="1">
                    <mxGeometry x="2580" y="240" width="10" height="1440" as="geometry"/>
                </mxCell>
                <mxCell id="35" value=": ProductModel" style="rounded=0;whiteSpace=wrap;html=1;fontSize=18;fillColor=#6a00ff;fontColor=#ffffff;strokeColor=#3700CC;" parent="1" vertex="1">
                    <mxGeometry x="2810" y="180" width="140" height="60" as="geometry"/>
                </mxCell>
                <mxCell id="36" value="" style="line;strokeWidth=2;direction=south;html=1;fontSize=18;dashed=1;" parent="1" vertex="1">
                    <mxGeometry x="2880" y="240" width="10" height="1400" as="geometry"/>
                </mxCell>
                <mxCell id="39" style="edgeStyle=orthogonalEdgeStyle;html=1;entryX=-0.027;entryY=0.004;entryDx=0;entryDy=0;entryPerimeter=0;fontSize=18;exitX=1.148;exitY=0.034;exitDx=0;exitDy=0;exitPerimeter=0;" parent="1" source="37" target="38" edge="1">
                    <mxGeometry relative="1" as="geometry"/>
                </mxCell>
                <mxCell id="37" value="" style="rounded=0;whiteSpace=wrap;html=1;fontSize=18;fillColor=#d80073;fontColor=#ffffff;strokeColor=#A50040;" parent="1" vertex="1">
                    <mxGeometry x="130" y="260" width="30" height="1750" as="geometry"/>
                </mxCell>
                <mxCell id="42" style="edgeStyle=orthogonalEdgeStyle;html=1;fontSize=18;exitX=1.111;exitY=0.053;exitDx=0;exitDy=0;exitPerimeter=0;entryX=0.051;entryY=0.115;entryDx=0;entryDy=0;entryPerimeter=0;" parent="1" source="38" target="41" edge="1">
                    <mxGeometry relative="1" as="geometry">
                        <Array as="points"/>
                    </mxGeometry>
                </mxCell>
                <mxCell id="79" style="edgeStyle=orthogonalEdgeStyle;html=1;entryX=-0.106;entryY=0.008;entryDx=0;entryDy=0;entryPerimeter=0;fontSize=18;exitX=1.111;exitY=0.028;exitDx=0;exitDy=0;exitPerimeter=0;" parent="1" source="38" target="41" edge="1">
                    <mxGeometry relative="1" as="geometry"/>
                </mxCell>
                <mxCell id="38" value="" style="rounded=0;whiteSpace=wrap;html=1;fontSize=18;fillColor=#d80073;fontColor=#ffffff;strokeColor=#A50040;" parent="1" vertex="1">
                    <mxGeometry x="400" y="300" width="30" height="1700" as="geometry"/>
                </mxCell>
                <mxCell id="40" value="I want an apple" style="text;html=1;strokeColor=none;fillColor=none;align=center;verticalAlign=middle;whiteSpace=wrap;rounded=0;fontSize=18;" parent="1" vertex="1">
                    <mxGeometry x="200" y="270" width="140" height="30" as="geometry"/>
                </mxCell>
                <mxCell id="45" style="edgeStyle=orthogonalEdgeStyle;html=1;entryX=0;entryY=0.056;entryDx=0;entryDy=0;entryPerimeter=0;fontSize=18;exitX=0.992;exitY=0.115;exitDx=0;exitDy=0;exitPerimeter=0;" parent="1" source="41" target="44" edge="1">
                    <mxGeometry relative="1" as="geometry"/>
                </mxCell>
                <mxCell id="67" style="edgeStyle=orthogonalEdgeStyle;html=1;entryX=-0.008;entryY=0.007;entryDx=0;entryDy=0;entryPerimeter=0;fontSize=18;" parent="1" target="57" edge="1">
                    <mxGeometry relative="1" as="geometry">
                        <mxPoint x="670" y="390" as="sourcePoint"/>
                        <Array as="points">
                            <mxPoint x="910" y="390"/>
                            <mxPoint x="910" y="641"/>
                        </Array>
                    </mxGeometry>
                </mxCell>
                <mxCell id="41" value="" style="rounded=0;whiteSpace=wrap;html=1;fontSize=18;fillColor=#d80073;fontColor=#ffffff;strokeColor=#A50040;" parent="1" vertex="1">
                    <mxGeometry x="640" y="340" width="30" height="420" as="geometry"/>
                </mxCell>
                <mxCell id="43" value="Sign()" style="text;html=1;strokeColor=none;fillColor=none;align=center;verticalAlign=middle;whiteSpace=wrap;rounded=0;fontSize=18;" parent="1" vertex="1">
                    <mxGeometry x="500" y="360" width="60" height="30" as="geometry"/>
                </mxCell>
                <mxCell id="48" style="edgeStyle=orthogonalEdgeStyle;html=1;entryX=-0.125;entryY=0.033;entryDx=0;entryDy=0;entryPerimeter=0;fontSize=18;exitX=1.051;exitY=0.228;exitDx=0;exitDy=0;exitPerimeter=0;" parent="1" source="44" target="47" edge="1">
                    <mxGeometry relative="1" as="geometry"/>
                </mxCell>
                <mxCell id="75" style="edgeStyle=orthogonalEdgeStyle;html=1;entryX=1;entryY=0.262;entryDx=0;entryDy=0;entryPerimeter=0;fontSize=18;dashed=1;" parent="1" source="44" target="41" edge="1">
                    <mxGeometry relative="1" as="geometry"/>
                </mxCell>
                <mxCell id="44" value="" style="rounded=0;whiteSpace=wrap;html=1;fontSize=18;fillColor=#d80073;fontColor=#ffffff;strokeColor=#A50040;" parent="1" vertex="1">
                    <mxGeometry x="1030" y="380" width="30" height="140" as="geometry"/>
                </mxCell>
                <mxCell id="46" value="Sign(cacher)" style="text;html=1;strokeColor=none;fillColor=none;align=center;verticalAlign=middle;whiteSpace=wrap;rounded=0;fontSize=18;" parent="1" vertex="1">
                    <mxGeometry x="810" y="360" width="60" height="30" as="geometry"/>
                </mxCell>
                <mxCell id="68" style="edgeStyle=orthogonalEdgeStyle;html=1;fontSize=18;dashed=1;" parent="1" source="47" target="44" edge="1">
                    <mxGeometry relative="1" as="geometry">
                        <Array as="points">
                            <mxPoint x="1130" y="465"/>
                            <mxPoint x="1130" y="465"/>
                        </Array>
                    </mxGeometry>
                </mxCell>
                <mxCell id="47" value="" style="rounded=0;whiteSpace=wrap;html=1;fontSize=18;fillColor=#d80073;fontColor=#ffffff;strokeColor=#A50040;" parent="1" vertex="1">
                    <mxGeometry x="1350" y="420" width="30" height="90" as="geometry"/>
                </mxCell>
                <mxCell id="49" value="getCacherId(cacher)" style="text;html=1;strokeColor=none;fillColor=none;align=center;verticalAlign=middle;whiteSpace=wrap;rounded=0;fontSize=18;" parent="1" vertex="1">
                    <mxGeometry x="1190" y="390" width="60" height="30" as="geometry"/>
                </mxCell>
                <mxCell id="50" value="" style="rounded=0;whiteSpace=wrap;html=1;fontSize=18;fillColor=none;" parent="1" vertex="1">
                    <mxGeometry x="930" y="320" width="530" height="210" as="geometry"/>
                </mxCell>
                <mxCell id="52" value="If chachr is old" style="shape=card;whiteSpace=wrap;html=1;fontSize=18;fillColor=none;size=40;rotation=90;flipH=1;textDirection=ltr;verticalAlign=middle;horizontal=0;" parent="1" vertex="1">
                    <mxGeometry x="1050" y="200" width="40" height="280" as="geometry"/>
                </mxCell>
                <mxCell id="53" value="" style="rounded=0;whiteSpace=wrap;html=1;fontSize=18;fillColor=none;" parent="1" vertex="1">
                    <mxGeometry x="930" y="560" width="530" height="360" as="geometry"/>
                </mxCell>
                <mxCell id="54" value="If chachr is new" style="shape=card;whiteSpace=wrap;html=1;fontSize=18;fillColor=none;size=40;rotation=90;flipH=1;textDirection=ltr;verticalAlign=middle;horizontal=0;" parent="1" vertex="1">
                    <mxGeometry x="1050" y="440" width="40" height="280" as="geometry"/>
                </mxCell>
                <mxCell id="59" style="edgeStyle=orthogonalEdgeStyle;html=1;entryX=-0.086;entryY=0.026;entryDx=0;entryDy=0;entryPerimeter=0;fontSize=18;exitX=1.169;exitY=0.188;exitDx=0;exitDy=0;exitPerimeter=0;" parent="1" source="57" target="58" edge="1">
                    <mxGeometry relative="1" as="geometry"/>
                </mxCell>
                <mxCell id="65" style="edgeStyle=orthogonalEdgeStyle;html=1;fontSize=18;exitX=1.169;exitY=0.759;exitDx=0;exitDy=0;exitPerimeter=0;entryX=-0.008;entryY=0.721;entryDx=0;entryDy=0;entryPerimeter=0;" parent="1" source="57" target="58" edge="1">
                    <mxGeometry relative="1" as="geometry"/>
                </mxCell>
                <mxCell id="77" style="edgeStyle=orthogonalEdgeStyle;html=1;entryX=1.11;entryY=0.952;entryDx=0;entryDy=0;entryPerimeter=0;fontSize=18;dashed=1;" parent="1" source="57" target="41" edge="1">
                    <mxGeometry relative="1" as="geometry"/>
                </mxCell>
                <mxCell id="57" value="" style="rounded=0;whiteSpace=wrap;html=1;fontSize=18;fillColor=#d80073;fontColor=#ffffff;strokeColor=#A50040;" parent="1" vertex="1">
                    <mxGeometry x="1030" y="640" width="30" height="200" as="geometry"/>
                </mxCell>
                <mxCell id="63" style="edgeStyle=orthogonalEdgeStyle;html=1;fontSize=18;exitX=-0.008;exitY=0.287;exitDx=0;exitDy=0;exitPerimeter=0;dashed=1;" parent="1" source="58" edge="1">
                    <mxGeometry relative="1" as="geometry">
                        <mxPoint x="1060" y="726" as="targetPoint"/>
                    </mxGeometry>
                </mxCell>
                <mxCell id="73" style="edgeStyle=orthogonalEdgeStyle;html=1;fontSize=18;exitX=-0.008;exitY=0.926;exitDx=0;exitDy=0;exitPerimeter=0;entryX=1.09;entryY=0.929;entryDx=0;entryDy=0;entryPerimeter=0;dashed=1;" parent="1" source="58" target="57" edge="1">
                    <mxGeometry relative="1" as="geometry"/>
                </mxCell>
                <mxCell id="58" value="" style="rounded=0;whiteSpace=wrap;html=1;fontSize=18;fillColor=#d80073;fontColor=#ffffff;strokeColor=#A50040;" parent="1" vertex="1">
                    <mxGeometry x="1350" y="680" width="30" height="160" as="geometry"/>
                </mxCell>
                <mxCell id="60" value="getCacherId(cacher)" style="text;html=1;strokeColor=none;fillColor=none;align=center;verticalAlign=middle;whiteSpace=wrap;rounded=0;fontSize=18;" parent="1" vertex="1">
                    <mxGeometry x="1110" y="650" width="190" height="30" as="geometry"/>
                </mxCell>
                <mxCell id="64" value="null" style="text;html=1;strokeColor=none;fillColor=none;align=center;verticalAlign=middle;whiteSpace=wrap;rounded=0;fontSize=18;" parent="1" vertex="1">
                    <mxGeometry x="1120" y="700" width="190" height="30" as="geometry"/>
                </mxCell>
                <mxCell id="66" value="addNewCacher(cacher)" style="text;html=1;strokeColor=none;fillColor=none;align=center;verticalAlign=middle;whiteSpace=wrap;rounded=0;fontSize=18;" parent="1" vertex="1">
                    <mxGeometry x="1120" y="760" width="190" height="30" as="geometry"/>
                </mxCell>
                <mxCell id="69" value="resultSet of Cacher" style="text;html=1;strokeColor=none;fillColor=none;align=center;verticalAlign=middle;whiteSpace=wrap;rounded=0;fontSize=18;" parent="1" vertex="1">
                    <mxGeometry x="1100" y="440" width="180" height="30" as="geometry"/>
                </mxCell>
                <mxCell id="74" value="resultSet of Cacher" style="text;html=1;strokeColor=none;fillColor=none;align=center;verticalAlign=middle;whiteSpace=wrap;rounded=0;fontSize=18;" parent="1" vertex="1">
                    <mxGeometry x="1110" y="800" width="180" height="30" as="geometry"/>
                </mxCell>
                <mxCell id="76" value="cacher" style="text;html=1;strokeColor=none;fillColor=none;align=center;verticalAlign=middle;whiteSpace=wrap;rounded=0;fontSize=18;" parent="1" vertex="1">
                    <mxGeometry x="790" y="420" width="60" height="30" as="geometry"/>
                </mxCell>
                <mxCell id="78" value="cacher" style="text;html=1;strokeColor=none;fillColor=none;align=center;verticalAlign=middle;whiteSpace=wrap;rounded=0;fontSize=18;" parent="1" vertex="1">
                    <mxGeometry x="780" y="710" width="60" height="30" as="geometry"/>
                </mxCell>
                <mxCell id="80" value="buildBaseUi()" style="text;html=1;strokeColor=none;fillColor=none;align=center;verticalAlign=middle;whiteSpace=wrap;rounded=0;fontSize=18;" parent="1" vertex="1">
                    <mxGeometry x="510" y="320" width="60" height="30" as="geometry"/>
                </mxCell>
                <mxCell id="87" style="edgeStyle=orthogonalEdgeStyle;html=1;entryX=-0.008;entryY=0.007;entryDx=0;entryDy=0;entryPerimeter=0;fontSize=18;" parent="1" source="81" target="86" edge="1">
                    <mxGeometry relative="1" as="geometry"/>
                </mxCell>
                <mxCell id="81" value="" style="rounded=0;whiteSpace=wrap;html=1;fontSize=18;fillColor=#d80073;fontColor=#ffffff;strokeColor=#A50040;" parent="1" vertex="1">
                    <mxGeometry x="1630" y="1110" width="30" height="160" as="geometry"/>
                </mxCell>
                <mxCell id="82" value="" style="endArrow=classic;html=1;fontSize=18;exitX=1.084;exitY=0.474;exitDx=0;exitDy=0;exitPerimeter=0;entryX=0.267;entryY=-0.015;entryDx=0;entryDy=0;entryPerimeter=0;edgeStyle=orthogonalEdgeStyle;" parent="1" source="38" target="81" edge="1">
                    <mxGeometry width="50" height="50" relative="1" as="geometry">
                        <mxPoint x="410" y="960" as="sourcePoint"/>
                        <mxPoint x="460" y="910" as="targetPoint"/>
                    </mxGeometry>
                </mxCell>
                <mxCell id="83" value="buildBaseUi()" style="text;html=1;strokeColor=none;fillColor=none;align=center;verticalAlign=middle;whiteSpace=wrap;rounded=0;fontSize=18;" parent="1" vertex="1">
                    <mxGeometry x="1040" y="1080" width="60" height="30" as="geometry"/>
                </mxCell>
                <mxCell id="84" value="" style="endArrow=classic;html=1;fontSize=18;exitX=1.084;exitY=0.508;exitDx=0;exitDy=0;exitPerimeter=0;entryX=-0.125;entryY=0.298;entryDx=0;entryDy=0;entryPerimeter=0;edgeStyle=orthogonalEdgeStyle;" parent="1" source="38" target="81" edge="1">
                    <mxGeometry width="50" height="50" relative="1" as="geometry">
                        <mxPoint x="800" y="1060" as="sourcePoint"/>
                        <mxPoint x="850" y="1010" as="targetPoint"/>
                    </mxGeometry>
                </mxCell>
                <mxCell id="85" value="makeOrderService()" style="text;html=1;strokeColor=none;fillColor=none;align=center;verticalAlign=middle;whiteSpace=wrap;rounded=0;fontSize=18;" parent="1" vertex="1">
                    <mxGeometry x="1020" y="1130" width="60" height="30" as="geometry"/>
                </mxCell>
                <mxCell id="98" style="edgeStyle=orthogonalEdgeStyle;html=1;entryX=0.012;entryY=0.013;entryDx=0;entryDy=0;entryPerimeter=0;fontSize=18;exitX=1.051;exitY=0.182;exitDx=0;exitDy=0;exitPerimeter=0;" parent="1" source="86" target="97" edge="1">
                    <mxGeometry relative="1" as="geometry"/>
                </mxCell>
                <mxCell id="86" value="" style="rounded=0;whiteSpace=wrap;html=1;fontSize=18;fillColor=#d80073;fontColor=#ffffff;strokeColor=#A50040;" parent="1" vertex="1">
                    <mxGeometry x="1970" y="1190" width="30" height="590" as="geometry"/>
                </mxCell>
                <mxCell id="88" value="buildBaseUi()" style="text;html=1;strokeColor=none;fillColor=none;align=center;verticalAlign=middle;whiteSpace=wrap;rounded=0;fontSize=18;" parent="1" vertex="1">
                    <mxGeometry x="1800" y="1160" width="60" height="30" as="geometry"/>
                </mxCell>
                <mxCell id="89" value="" style="endArrow=classic;html=1;fontSize=18;exitX=1.202;exitY=0.646;exitDx=0;exitDy=0;exitPerimeter=0;entryX=-0.086;entryY=0.358;entryDx=0;entryDy=0;entryPerimeter=0;edgeStyle=orthogonalEdgeStyle;" parent="1" source="38" target="86" edge="1">
                    <mxGeometry width="50" height="50" relative="1" as="geometry">
                        <mxPoint x="510" y="1310" as="sourcePoint"/>
                        <mxPoint x="560" y="1260" as="targetPoint"/>
                    </mxGeometry>
                </mxCell>
                <mxCell id="90" value="cacher click in add button on apple card" style="text;html=1;strokeColor=none;fillColor=none;align=center;verticalAlign=middle;whiteSpace=wrap;rounded=0;fontSize=18;" parent="1" vertex="1">
                    <mxGeometry x="1020" y="1370" width="410" height="30" as="geometry"/>
                </mxCell>
                <mxCell id="92" value="" style="endArrow=classic;html=1;fontSize=18;exitX=1.202;exitY=0.699;exitDx=0;exitDy=0;exitPerimeter=0;edgeStyle=orthogonalEdgeStyle;entryX=-0.047;entryY=0.492;entryDx=0;entryDy=0;entryPerimeter=0;" parent="1" source="38" target="86" edge="1">
                    <mxGeometry width="50" height="50" relative="1" as="geometry">
                        <mxPoint x="1010" y="1350" as="sourcePoint"/>
                        <mxPoint x="1970" y="1373" as="targetPoint"/>
                    </mxGeometry>
                </mxCell>
                <mxCell id="93" value="sell()" style="text;html=1;strokeColor=none;fillColor=none;align=center;verticalAlign=middle;whiteSpace=wrap;rounded=0;fontSize=18;" parent="1" vertex="1">
                    <mxGeometry x="1010" y="1440" width="410" height="30" as="geometry"/>
                </mxCell>
                <mxCell id="96" value="getAllProducts()" style="text;html=1;strokeColor=none;fillColor=none;align=center;verticalAlign=middle;whiteSpace=wrap;rounded=0;fontSize=18;" parent="1" vertex="1">
                    <mxGeometry x="2100" y="1270" width="60" height="30" as="geometry"/>
                </mxCell>
                <mxCell id="100" style="edgeStyle=orthogonalEdgeStyle;html=1;entryX=0.031;entryY=0.029;entryDx=0;entryDy=0;entryPerimeter=0;fontSize=18;exitX=1.129;exitY=0.097;exitDx=0;exitDy=0;exitPerimeter=0;" parent="1" source="97" target="99" edge="1">
                    <mxGeometry relative="1" as="geometry"/>
                </mxCell>
                <mxCell id="111" style="edgeStyle=orthogonalEdgeStyle;html=1;entryX=1.169;entryY=0.3;entryDx=0;entryDy=0;entryPerimeter=0;dashed=1;fontSize=18;exitX=-0.028;exitY=0.126;exitDx=0;exitDy=0;exitPerimeter=0;" parent="1" source="97" target="86" edge="1">
                    <mxGeometry relative="1" as="geometry"/>
                </mxCell>
                <mxCell id="97" value="" style="rounded=0;whiteSpace=wrap;html=1;fontSize=18;fillColor=#d80073;fontColor=#ffffff;strokeColor=#A50040;" parent="1" vertex="1">
                    <mxGeometry x="2270" y="1300" width="30" height="580" as="geometry"/>
                </mxCell>
                <mxCell id="103" style="edgeStyle=orthogonalEdgeStyle;html=1;entryX=0.11;entryY=0.012;entryDx=0;entryDy=0;entryPerimeter=0;fontSize=18;exitX=1.09;exitY=0.365;exitDx=0;exitDy=0;exitPerimeter=0;" parent="1" source="99" target="102" edge="1">
                    <mxGeometry relative="1" as="geometry"/>
                </mxCell>
                <mxCell id="108" style="edgeStyle=orthogonalEdgeStyle;html=1;entryX=1.129;entryY=0.211;entryDx=0;entryDy=0;entryPerimeter=0;dashed=1;fontSize=18;" parent="1" source="99" target="97" edge="1">
                    <mxGeometry relative="1" as="geometry"/>
                </mxCell>
                <mxCell id="99" value="" style="rounded=0;whiteSpace=wrap;html=1;fontSize=18;fillColor=#d80073;fontColor=#ffffff;strokeColor=#A50040;" parent="1" vertex="1">
                    <mxGeometry x="2570" y="1350" width="30" height="150" as="geometry"/>
                </mxCell>
                <mxCell id="101" value="getAllProducts()" style="text;html=1;strokeColor=none;fillColor=none;align=center;verticalAlign=middle;whiteSpace=wrap;rounded=0;fontSize=18;" parent="1" vertex="1">
                    <mxGeometry x="2400" y="1320" width="60" height="30" as="geometry"/>
                </mxCell>
                <mxCell id="105" style="edgeStyle=orthogonalEdgeStyle;html=1;entryX=1.051;entryY=0.694;entryDx=0;entryDy=0;entryPerimeter=0;fontSize=18;dashed=1;" parent="1" source="102" target="99" edge="1">
                    <mxGeometry relative="1" as="geometry"/>
                </mxCell>
                <mxCell id="102" value="" style="rounded=0;whiteSpace=wrap;html=1;fontSize=18;fillColor=#d80073;fontColor=#ffffff;strokeColor=#A50040;" parent="1" vertex="1">
                    <mxGeometry x="2870" y="1400" width="30" height="100" as="geometry"/>
                </mxCell>
                <mxCell id="104" value="getAllProducts()" style="text;html=1;strokeColor=none;fillColor=none;align=center;verticalAlign=middle;whiteSpace=wrap;rounded=0;fontSize=18;" parent="1" vertex="1">
                    <mxGeometry x="2710" y="1360" width="60" height="30" as="geometry"/>
                </mxCell>
                <mxCell id="106" value="setResults Of&amp;nbsp; Products" style="text;html=1;strokeColor=none;fillColor=none;align=center;verticalAlign=middle;whiteSpace=wrap;rounded=0;fontSize=18;" parent="1" vertex="1">
                    <mxGeometry x="2620" y="1420" width="230" height="30" as="geometry"/>
                </mxCell>
                <mxCell id="109" value="ArrayList Of&amp;nbsp; Products" style="text;html=1;strokeColor=none;fillColor=none;align=center;verticalAlign=middle;whiteSpace=wrap;rounded=0;fontSize=18;" parent="1" vertex="1">
                    <mxGeometry x="2320" y="1390" width="230" height="30" as="geometry"/>
                </mxCell>
                <mxCell id="112" value="ArrayList Of&amp;nbsp; Products" style="text;html=1;strokeColor=none;fillColor=none;align=center;verticalAlign=middle;whiteSpace=wrap;rounded=0;fontSize=18;" parent="1" vertex="1">
                    <mxGeometry x="2010" y="1340" width="230" height="30" as="geometry"/>
                </mxCell>
                <mxCell id="114" value="" style="endArrow=classic;html=1;fontSize=18;edgeStyle=orthogonalEdgeStyle;exitX=1.09;exitY=0.547;exitDx=0;exitDy=0;exitPerimeter=0;entryX=-0.047;entryY=0.379;entryDx=0;entryDy=0;entryPerimeter=0;" parent="1" source="86" target="97" edge="1">
                    <mxGeometry width="50" height="50" relative="1" as="geometry">
                        <mxPoint x="2360" y="1510" as="sourcePoint"/>
                        <mxPoint x="2410" y="1460" as="targetPoint"/>
                    </mxGeometry>
                </mxCell>
                <mxCell id="115" value="saveComplateOrderUnit(order)" style="text;html=1;strokeColor=none;fillColor=none;align=center;verticalAlign=middle;whiteSpace=wrap;rounded=0;fontSize=18;" parent="1" vertex="1">
                    <mxGeometry x="2020" y="1480" width="230" height="30" as="geometry"/>
                </mxCell>
                <mxCell id="116" value=": OrderController" style="rounded=0;whiteSpace=wrap;html=1;fontSize=18;fillColor=#6a00ff;fontColor=#ffffff;strokeColor=#3700CC;" parent="1" vertex="1">
                    <mxGeometry x="3090" y="180" width="140" height="60" as="geometry"/>
                </mxCell>
                <mxCell id="117" value="" style="line;strokeWidth=2;direction=south;html=1;fontSize=18;dashed=1;" parent="1" vertex="1">
                    <mxGeometry x="3160" y="240" width="10" height="1800" as="geometry"/>
                </mxCell>
                <mxCell id="126" style="edgeStyle=orthogonalEdgeStyle;html=1;entryX=0.039;entryY=0.017;entryDx=0;entryDy=0;entryPerimeter=0;fontSize=18;exitX=0.986;exitY=0.278;exitDx=0;exitDy=0;exitPerimeter=0;" parent="1" source="120" target="125" edge="1">
                    <mxGeometry relative="1" as="geometry"/>
                </mxCell>
                <mxCell id="137" style="edgeStyle=orthogonalEdgeStyle;html=1;entryX=1.051;entryY=0.73;entryDx=0;entryDy=0;entryPerimeter=0;dashed=1;fontSize=18;exitX=-0.056;exitY=0.763;exitDx=0;exitDy=0;exitPerimeter=0;" parent="1" source="120" target="97" edge="1">
                    <mxGeometry relative="1" as="geometry"/>
                </mxCell>
                <mxCell id="120" value="" style="rounded=0;whiteSpace=wrap;html=1;fontSize=18;fillColor=#d80073;fontColor=#ffffff;strokeColor=#A50040;" parent="1" vertex="1">
                    <mxGeometry x="3150" y="1540" width="30" height="230" as="geometry"/>
                </mxCell>
                <mxCell id="121" value="" style="endArrow=classic;html=1;fontSize=18;edgeStyle=orthogonalEdgeStyle;entryX=0.031;entryY=0.012;entryDx=0;entryDy=0;entryPerimeter=0;exitX=0.973;exitY=0.426;exitDx=0;exitDy=0;exitPerimeter=0;" parent="1" source="97" target="120" edge="1">
                    <mxGeometry width="50" height="50" relative="1" as="geometry">
                        <mxPoint x="2305" y="1525" as="sourcePoint"/>
                        <mxPoint x="2960" y="1370" as="targetPoint"/>
                    </mxGeometry>
                </mxCell>
                <mxCell id="122" value="addNewOrder(order)" style="text;html=1;strokeColor=none;fillColor=none;align=center;verticalAlign=middle;whiteSpace=wrap;rounded=0;fontSize=18;" parent="1" vertex="1">
                    <mxGeometry x="2500" y="1510" width="230" height="30" as="geometry"/>
                </mxCell>
                <mxCell id="123" value=": OrderModel" style="rounded=0;whiteSpace=wrap;html=1;fontSize=18;fillColor=#6a00ff;fontColor=#ffffff;strokeColor=#3700CC;" parent="1" vertex="1">
                    <mxGeometry x="3410" y="180" width="140" height="60" as="geometry"/>
                </mxCell>
                <mxCell id="124" value="" style="line;strokeWidth=2;direction=south;html=1;fontSize=18;dashed=1;" parent="1" vertex="1">
                    <mxGeometry x="3480" y="240" width="10" height="1790" as="geometry"/>
                </mxCell>
                <mxCell id="134" style="edgeStyle=orthogonalEdgeStyle;html=1;entryX=1;entryY=0.604;entryDx=0;entryDy=0;entryPerimeter=0;fontSize=18;dashed=1;" parent="1" source="125" target="120" edge="1">
                    <mxGeometry relative="1" as="geometry"/>
                </mxCell>
                <mxCell id="125" value="" style="rounded=0;whiteSpace=wrap;html=1;fontSize=18;fillColor=#d80073;fontColor=#ffffff;strokeColor=#A50040;" parent="1" vertex="1">
                    <mxGeometry x="3470" y="1590" width="30" height="180" as="geometry"/>
                </mxCell>
                <mxCell id="127" value="addNewOrder(order)" style="text;html=1;strokeColor=none;fillColor=none;align=center;verticalAlign=middle;whiteSpace=wrap;rounded=0;fontSize=18;" parent="1" vertex="1">
                    <mxGeometry x="3220" y="1560" width="230" height="30" as="geometry"/>
                </mxCell>
                <mxCell id="135" value="true || false" style="text;html=1;strokeColor=none;fillColor=none;align=center;verticalAlign=middle;whiteSpace=wrap;rounded=0;fontSize=18;" parent="1" vertex="1">
                    <mxGeometry x="3220" y="1650" width="230" height="30" as="geometry"/>
                </mxCell>
                <mxCell id="138" value="true || false" style="text;html=1;strokeColor=none;fillColor=none;align=center;verticalAlign=middle;whiteSpace=wrap;rounded=0;fontSize=18;" parent="1" vertex="1">
                    <mxGeometry x="2610" y="1680" width="230" height="30" as="geometry"/>
                </mxCell>
                <mxCell id="139" value=": ReceiptUi" style="rounded=0;whiteSpace=wrap;html=1;fontSize=18;fillColor=#6a00ff;fontColor=#ffffff;strokeColor=#3700CC;" parent="1" vertex="1">
                    <mxGeometry x="3740" y="180" width="140" height="60" as="geometry"/>
                </mxCell>
                <mxCell id="140" value="" style="line;strokeWidth=2;direction=south;html=1;fontSize=18;dashed=1;" parent="1" vertex="1">
                    <mxGeometry x="3810" y="240" width="10" height="1780" as="geometry"/>
                </mxCell>
                <mxCell id="146" style="edgeStyle=orthogonalEdgeStyle;html=1;entryX=1;entryY=0.5;entryDx=0;entryDy=0;entryPerimeter=0;fontSize=18;" parent="1" source="142" target="145" edge="1">
                    <mxGeometry relative="1" as="geometry">
                        <Array as="points">
                            <mxPoint x="3815" y="1770"/>
                            <mxPoint x="3940" y="1770"/>
                            <mxPoint x="3940" y="1870"/>
                            <mxPoint x="3840" y="1870"/>
                        </Array>
                    </mxGeometry>
                </mxCell>
                <mxCell id="142" value="" style="rounded=0;whiteSpace=wrap;html=1;fontSize=18;fillColor=#d80073;fontColor=#ffffff;strokeColor=#A50040;" parent="1" vertex="1">
                    <mxGeometry x="3800" y="1820" width="30" height="190" as="geometry"/>
                </mxCell>
                <mxCell id="143" value="" style="endArrow=classic;html=1;fontSize=18;exitX=1.129;exitY=0.905;exitDx=0;exitDy=0;exitPerimeter=0;entryX=-0.027;entryY=0.053;entryDx=0;entryDy=0;entryPerimeter=0;edgeStyle=orthogonalEdgeStyle;" parent="1" source="97" target="142" edge="1">
                    <mxGeometry width="50" height="50" relative="1" as="geometry">
                        <mxPoint x="2330" y="1830" as="sourcePoint"/>
                        <mxPoint x="2380" y="1780" as="targetPoint"/>
                    </mxGeometry>
                </mxCell>
                <mxCell id="144" value="buildBaseUi()" style="text;html=1;strokeColor=none;fillColor=none;align=center;verticalAlign=middle;whiteSpace=wrap;rounded=0;fontSize=18;" parent="1" vertex="1">
                    <mxGeometry x="2980" y="1790" width="230" height="30" as="geometry"/>
                </mxCell>
                <mxCell id="145" value="" style="rounded=0;whiteSpace=wrap;html=1;fontSize=18;fillColor=#d80073;fontColor=#ffffff;strokeColor=#A50040;" parent="1" vertex="1">
                    <mxGeometry x="3820" y="1840" width="20" height="60" as="geometry"/>
                </mxCell>
                <mxCell id="147" value="print()" style="text;html=1;strokeColor=none;fillColor=none;align=center;verticalAlign=middle;whiteSpace=wrap;rounded=0;fontSize=18;" parent="1" vertex="1">
                    <mxGeometry x="3800" y="1740" width="230" height="30" as="geometry"/>
                </mxCell>
                <mxCell id="148" value="" style="endArrow=classic;html=1;dashed=1;fontSize=18;edgeStyle=orthogonalEdgeStyle;exitX=0.025;exitY=0.817;exitDx=0;exitDy=0;exitPerimeter=0;entryX=0.771;entryY=0.97;entryDx=0;entryDy=0;entryPerimeter=0;" parent="1" source="142" target="38" edge="1">
                    <mxGeometry width="50" height="50" relative="1" as="geometry">
                        <mxPoint x="3130" y="2090" as="sourcePoint"/>
                        <mxPoint x="3180" y="2040" as="targetPoint"/>
                    </mxGeometry>
                </mxCell>
                <mxCell id="149" value="Receipt on paper" style="text;html=1;strokeColor=none;fillColor=none;align=center;verticalAlign=middle;whiteSpace=wrap;rounded=0;fontSize=18;" parent="1" vertex="1">
                    <mxGeometry x="1970" y="1920" width="230" height="30" as="geometry"/>
                </mxCell>
                <mxCell id="150" value="" style="endArrow=classic;html=1;fontSize=18;edgeStyle=orthogonalEdgeStyle;dashed=1;exitX=-0.028;exitY=0.99;exitDx=0;exitDy=0;exitPerimeter=0;entryX=1.018;entryY=0.986;entryDx=0;entryDy=0;entryPerimeter=0;" parent="1" source="38" target="37" edge="1">
                    <mxGeometry width="50" height="50" relative="1" as="geometry">
                        <mxPoint x="230" y="1830" as="sourcePoint"/>
                        <mxPoint x="280" y="1780" as="targetPoint"/>
                    </mxGeometry>
                </mxCell>
                <mxCell id="151" value="take the receipt and your apple" style="text;html=1;strokeColor=none;fillColor=none;align=center;verticalAlign=middle;whiteSpace=wrap;rounded=0;fontSize=18;" parent="1" vertex="1">
                    <mxGeometry x="160" y="1940" width="230" height="30" as="geometry"/>
                </mxCell>
            </root>
        </mxGraphModel>
    </diagram>
</mxfile>